<svg width="150" height="200" viewBox="0 0 150 200" fill="none" xmlns="http://www.w3.org/2000/svg">
<rect width="149.986" height="199.758" transform="translate(-0.0078125)" fill="white"/>
<path d="M149.978 122.047C128.454 175.445 76.8919 143.141 76.8919 143.141C61.0716 175.094 34.9388 195.641 4.78251 195.758C-1.50656 195.758 -1.70187 186.227 4.78251 186.227C29.9388 186.109 51.8528 169.547 66.1888 143.219C50.1341 149.43 19.8606 154.117 3.06376 111.109C45.6419 93.5703 65.2122 115.484 72.7122 128.883C76.5794 119.352 79.3528 109 81.1497 97.75C81.1497 97.75 26.5794 106.305 22.7513 59.4297C69.2747 40.7188 82.3606 89.3906 82.3606 89.3906C82.9856 82.8672 83.6497 68.8438 83.6497 68.5313C83.6497 68.5313 42.1263 39.7422 68.7669 4C117.439 20.7969 92.7513 67.4375 92.7513 67.4375C92.9466 68.0625 92.9466 76.7344 92.7513 80.4844C92.7513 80.4844 110.408 45.7188 146.033 58.0234C144.392 110.367 90.6028 99.5859 90.6028 99.5859C88.8841 110.289 86.2278 120.445 82.7903 129.859C82.7903 129.859 115.212 94 149.978 122.047Z" fill="url(#paint0_linear_444_1580)"/>
<defs>
<linearGradient id="paint0_linear_444_1580" x1="-38.2827" y1="-0.735974" x2="188.799" y2="203.181" gradientUnits="userSpaceOnUse">
<stop stop-color="#00D0B0"/>
<stop offset="1" stop-color="#1366A5"/>
</linearGradient>
</defs>
</svg>
