<svg width="150" height="150" viewBox="0 0 150 150" fill="none" xmlns="http://www.w3.org/2000/svg">
<g clip-path="url(#clip0_444_1590)">
<path d="M1.20117 11.1914C0.410156 10.0195 0 8.61328 0 7.20703C0 3.22266 3.22266 0 7.20703 0H39.2285C42.5098 0 45.5859 1.72852 47.2559 4.54102L67.3242 37.9688C53.2031 39.7559 40.5762 46.3477 31.1719 56.1035L1.20117 11.1914ZM148.77 11.1914L118.828 56.1035C109.424 46.3477 96.7969 39.7559 82.6758 37.9688L102.744 4.54102C104.443 1.72852 107.49 0 110.771 0H142.793C146.777 0 150 3.22266 150 7.20703C150 8.61328 149.59 10.0195 148.799 11.1914H148.77ZM23.4375 98.4375C23.4375 84.7623 28.87 71.6471 38.5398 61.9773C48.2097 52.3075 61.3248 46.875 75 46.875C88.6752 46.875 101.79 52.3075 111.46 61.9773C121.13 71.6471 126.562 84.7623 126.562 98.4375C126.562 112.113 121.13 125.228 111.46 134.898C101.79 144.568 88.6752 150 75 150C61.3248 150 48.2097 144.568 38.5398 134.898C28.87 125.228 23.4375 112.113 23.4375 98.4375ZM77.4609 70.6348C76.4648 68.584 73.5645 68.584 72.5391 70.6348L65.9766 83.9355C65.5664 84.7559 64.8047 85.3125 63.9258 85.4297L49.2188 87.5684C46.9629 87.8906 46.084 90.6445 47.6953 92.2559L58.3301 102.627C58.9746 103.271 59.2676 104.15 59.1211 105.059L56.6016 119.678C56.2207 121.904 58.5645 123.633 60.5859 122.578L73.7109 115.664C74.502 115.254 75.4688 115.254 76.2598 115.664L89.3848 122.578C91.4062 123.633 93.75 121.934 93.3691 119.678L90.8496 105.059C90.7031 104.18 90.9961 103.271 91.6406 102.627L102.275 92.2559C103.916 90.6738 103.008 87.9199 100.752 87.5684L86.0742 85.4297C85.1953 85.3125 84.4043 84.7266 84.0234 83.9355L77.4609 70.6348Z" fill="url(#paint0_linear_444_1590)"/>
</g>
<defs>
<linearGradient id="paint0_linear_444_1590" x1="-27.5" y1="-26" x2="177.5" y2="185.5" gradientUnits="userSpaceOnUse">
<stop stop-color="#00D2B2"/>
<stop offset="1" stop-color="#1366A5"/>
</linearGradient>
<clipPath id="clip0_444_1590">
<rect width="150" height="150" fill="white"/>
</clipPath>
</defs>
</svg>
