<svg width="20" height="20" viewBox="0 0 20 20" fill="none" xmlns="http://www.w3.org/2000/svg">
<path d="M6.20078 11.9002C6.20078 10.9613 5.43967 10.2002 4.50078 10.2002C3.5619 10.2002 2.80078 10.9613 2.80078 11.9002V15.5002C2.80078 16.4391 3.5619 17.2002 4.50078 17.2002C5.43967 17.2002 6.20078 16.4391 6.20078 15.5002V11.9002Z" fill="#03C4AF"/>
<path d="M11.5992 8.29961C11.5992 7.36073 10.8381 6.59961 9.89922 6.59961C8.96033 6.59961 8.19922 7.36073 8.19922 8.29961V15.4996C8.19922 16.4385 8.96033 17.1996 9.89922 17.1996C10.8381 17.1996 11.5992 16.4385 11.5992 15.4996V8.29961Z" fill="#D9D9D9"/>
<path d="M17.0016 4.9002C17.0016 3.96131 16.2404 3.2002 15.3016 3.2002C14.3627 3.2002 13.6016 3.96131 13.6016 4.9002V15.5002C13.6016 16.4391 14.3627 17.2002 15.3016 17.2002C16.2404 17.2002 17.0016 16.4391 17.0016 15.5002V4.9002Z" fill="#D9D9D9"/>
</svg>
