<svg width="200" height="160" viewBox="0 0 200 160" fill="none" xmlns="http://www.w3.org/2000/svg">
<path d="M96.4053 42.2812C98.624 40.3125 99.499 37.2188 98.3428 34.4688C97.624 32.8125 96.8428 31.1875 95.9678 29.625L94.999 27.9375C94.0615 26.375 93.0303 24.8438 91.9365 23.375C90.1553 21 87.0303 20.2188 84.2178 21.1562L75.4053 24.0625C72.0615 21.3125 68.2178 19.0625 64.0928 17.5312L62.1865 8.46875C61.5928 5.5625 59.3428 3.25 56.4053 2.90625C54.3428 2.625 52.249 2.5 50.124 2.5H49.9053C47.7803 2.5 45.6865 2.625 43.624 2.875C40.6865 3.21875 38.4365 5.5625 37.8428 8.4375L35.9365 17.5312C31.7803 19.0938 27.9678 21.3125 24.624 24.0625L15.7803 21.1875C12.9678 20.25 9.84278 21.0312 8.06153 23.4062C6.96778 24.875 5.93653 26.4062 4.96778 27.9688L4.03028 29.625C3.15528 31.1875 2.37403 32.8125 1.65528 34.5C0.499031 37.2188 1.37403 40.3125 3.59278 42.3125L10.5303 48.5C10.1865 50.5938 9.99903 52.7812 9.99903 55C9.99903 57.2188 10.1865 59.4062 10.5303 61.5312L3.59278 67.7188C1.37403 69.6875 0.499031 72.7812 1.65528 75.5312C2.37403 77.1875 3.15528 78.8125 4.03028 80.4062L4.96778 82.0312C5.90528 83.625 6.93653 85.125 8.06153 86.5938C9.84278 88.9688 12.9678 89.75 15.7803 88.8125L24.5928 85.9062C27.9365 88.6562 31.7803 90.9062 35.9053 92.4375L37.8115 101.531C38.4053 104.438 40.6553 106.75 43.5928 107.094C45.6865 107.344 47.8115 107.469 49.9678 107.469C52.124 107.469 54.249 107.344 56.3428 107.094C59.2803 106.75 61.5303 104.406 62.124 101.531L64.0303 92.4375C68.1865 90.875 71.999 88.6562 75.3428 85.9062L84.1553 88.8125C86.9678 89.75 90.0928 88.9688 91.874 86.5938C92.9678 85.125 93.999 83.625 94.9365 82.0312L95.9053 80.3438C96.7803 78.7812 97.5615 77.1562 98.2803 75.5C99.4365 72.7812 98.5615 69.6875 96.3428 67.6875L89.4053 61.5C89.749 59.375 89.9365 57.1875 89.9365 54.9688C89.9365 52.75 89.749 50.5625 89.4053 48.4375L96.3428 42.25L96.4053 42.2812ZM34.999 55C34.999 51.0218 36.5794 47.2064 39.3924 44.3934C42.2055 41.5803 46.0208 40 49.999 40C53.9773 40 57.7926 41.5803 60.6056 44.3934C63.4187 47.2064 64.999 51.0218 64.999 55C64.999 58.9782 63.4187 62.7936 60.6056 65.6066C57.7926 68.4196 53.9773 70 49.999 70C46.0208 70 42.2055 68.4196 39.3924 65.6066C36.5794 62.7936 34.999 58.9782 34.999 55ZM157.718 156.406C159.687 158.625 162.78 159.5 165.53 158.344C167.187 157.625 168.812 156.844 170.374 155.969L172.062 155C173.624 154.062 175.155 153.031 176.624 151.938C178.999 150.156 179.78 147.031 178.843 144.219L175.937 135.406C178.687 132.062 180.937 128.219 182.468 124.094L191.562 122.188C194.468 121.594 196.78 119.344 197.124 116.406C197.374 114.312 197.499 112.188 197.499 110.031C197.499 107.875 197.374 105.75 197.124 103.656C196.78 100.719 194.437 98.4688 191.562 97.875L182.468 95.9375C180.905 91.7812 178.687 87.9687 175.937 84.625L178.843 75.8125C179.78 73 178.999 69.875 176.624 68.0938C175.155 67 173.624 65.9688 172.062 65L170.405 64.0625C168.843 63.1875 167.218 62.4062 165.53 61.6875C162.812 60.5312 159.718 61.4063 157.718 63.625L151.53 70.5625C149.405 70.2188 147.218 70.0312 144.999 70.0312C142.78 70.0312 140.593 70.2188 138.468 70.5625L132.28 63.625C130.312 61.4063 127.218 60.5312 124.468 61.6875C122.812 62.4062 121.187 63.1875 119.593 64.0625L117.968 65C116.374 65.9375 114.874 66.9688 113.405 68.0938C111.03 69.875 110.249 73 111.187 75.8125L114.093 84.625C111.343 87.9687 109.093 91.8125 107.562 95.9375L98.4678 97.8125C95.5615 98.4062 93.249 100.656 92.9053 103.594C92.6553 105.688 92.5303 107.812 92.5303 109.969C92.5303 112.125 92.6553 114.25 92.9053 116.344C93.249 119.281 95.5928 121.531 98.4678 122.125L107.562 124.031C109.124 128.188 111.343 132 114.093 135.344L111.187 144.156C110.249 146.969 111.03 150.094 113.405 151.875C114.874 152.969 116.374 154 117.968 154.938L119.655 155.906C121.218 156.781 122.843 157.562 124.499 158.281C127.218 159.438 130.312 158.562 132.312 156.344L138.499 149.406C140.624 149.75 142.812 149.938 145.03 149.938C147.249 149.938 149.437 149.75 151.562 149.406L157.749 156.344L157.718 156.406ZM144.999 95C146.969 95 148.919 95.388 150.739 96.1418C152.559 96.8956 154.213 98.0005 155.606 99.3934C156.999 100.786 158.103 102.44 158.857 104.26C159.611 106.08 159.999 108.03 159.999 110C159.999 111.97 159.611 113.92 158.857 115.74C158.103 117.56 156.999 119.214 155.606 120.607C154.213 121.999 152.559 123.104 150.739 123.858C148.919 124.612 146.969 125 144.999 125C143.029 125 141.079 124.612 139.259 123.858C137.439 123.104 135.785 121.999 134.392 120.607C133 119.214 131.895 117.56 131.141 115.74C130.387 113.92 129.999 111.97 129.999 110C129.999 108.03 130.387 106.08 131.141 104.26C131.895 102.44 133 100.786 134.392 99.3934C135.785 98.0005 137.439 96.8956 139.259 96.1418C141.079 95.388 143.029 95 144.999 95Z" fill="url(#paint0_linear_444_1597)"/>
<defs>
<linearGradient id="paint0_linear_444_1597" x1="-18.5" y1="2" x2="225.5" y2="174" gradientUnits="userSpaceOnUse">
<stop stop-color="#00D2B2"/>
<stop offset="1" stop-color="#1366A5"/>
</linearGradient>
</defs>
</svg>
